<svg xmlns="http://www.w3.org/2000/svg" version="1.1" viewBox="552.22 460.12 815.55 159.77">
  <defs>
    <style>
      .cls-1 {
        fill: #785feb;
      }
    </style>
  </defs>
  <!-- Generator: Adobe Illustrator 28.7.1, SVG Export Plug-In . SVG Version: 1.2.0 Build 142)  -->
  <g>
    <g id="Layer_1">
      <g>
        <g>
          <g>
            <path d="M963.59,617.58c-8.2,0-15.24-1-21.14-3.02-5.9-2.01-10.8-4.27-14.68-6.77-4.58-2.91-8.4-6.24-11.45-9.99l13.95-16.68c2.22,2.27,4.79,4.28,7.7,6.04,2.5,1.51,5.59,2.86,9.27,4.06,3.68,1.2,7.95,1.79,12.81,1.79,5.97,0,10.24-.98,12.81-2.93,2.57-1.95,3.85-4.3,3.85-7.03,0-2.47-1.39-4.4-4.16-5.76-2.78-1.37-6.25-2.64-10.41-3.81-4.16-1.17-8.68-2.44-13.54-3.81-4.86-1.37-9.37-3.22-13.54-5.57-4.16-2.34-7.64-5.44-10.41-9.28-2.78-3.84-4.16-8.82-4.16-14.95,0-4.29.97-8.37,2.92-12.21,1.94-3.84,4.79-7.23,8.54-10.16,3.75-2.93,8.33-5.28,13.74-7.03,5.41-1.76,11.59-2.64,18.53-2.64s12.88.85,18.22,2.56c5.35,1.71,9.82,4.02,13.43,6.95,3.61,2.93,6.35,6.3,8.23,10.12,1.87,3.82,2.81,7.84,2.81,12.06,0,1.1-.07,2.16-.21,3.18-.14,1.03-.35,1.88-.63,2.56-.28.82-.56,1.23-.83,1.23h-27.07c0-.24.07-.61.21-1.1.28-.98.42-1.89.42-2.75,0-2.8-1.25-5.22-3.75-7.23-2.5-2.02-6.11-3.02-10.83-3.02-4.31,0-7.64.98-9.99,2.93-2.36,1.95-3.54,4.17-3.54,6.64s1.39,4.4,4.16,5.76c2.78,1.37,6.25,2.64,10.41,3.81,4.16,1.17,8.67,2.41,13.54,3.71,4.86,1.3,9.37,3.13,13.54,5.47,4.16,2.34,7.63,5.44,10.41,9.28,2.77,3.84,4.16,8.83,4.16,14.95,0,4.56-.97,8.79-2.92,12.7-1.94,3.91-4.76,7.36-8.43,10.35-3.68,3-8.2,5.34-13.54,7.03-5.35,1.69-11.49,2.54-18.43,2.54Z"/>
            <path class="cls-1" d="M1073.37,617.58c-8.2,0-15.59-1.22-22.18-3.66-6.59-2.44-12.22-6-16.87-10.68-4.65-4.68-8.26-10.41-10.83-17.2-2.57-6.79-3.85-14.54-3.85-23.24s1.28-16.45,3.85-23.23c2.57-6.79,6.21-12.52,10.93-17.2,4.72-4.68,10.41-8.27,17.07-10.78,6.67-2.51,14.09-3.76,22.29-3.76,7.22,0,13.78.98,19.68,2.95,5.9,1.96,10.86,4.7,14.89,8.18,4.02,3.49,7.15,7.61,9.37,12.37,2.22,4.76,3.33,9.93,3.33,15.51,0,3.3-.32,6.28-.94,8.94-.63,2.67-1.29,5.08-1.98,7.23-.83,2.41-1.74,4.63-2.71,6.66h-65.18c.83,7.22,3.51,12.98,8.02,17.28,4.51,4.31,10.73,6.45,18.64,6.45,4.72,0,8.88-.69,12.5-2.08,3.61-1.39,6.66-2.92,9.16-4.58,2.92-1.94,5.41-4.23,7.5-6.87l12.91,18.75c-3.06,3.61-6.8,6.8-11.25,9.57-3.75,2.36-8.47,4.51-14.16,6.46-5.7,1.94-12.43,2.92-20.2,2.92ZM1088.78,548.85c1.39,0,2.43-.51,3.13-1.54.69-1.03,1.04-2.32,1.04-3.87,0-3.2-1.63-5.9-4.89-8.12-3.26-2.22-8.02-3.33-14.26-3.33s-11.45,1.52-15.62,4.57c-4.17,3.05-6.8,7.14-7.92,12.3h38.53Z"/>
            <path class="cls-1" d="M1174.23,617.58c-5.83,0-11.35-1.15-16.56-3.46s-9.79-5.77-13.75-10.38c-3.95-4.61-7.08-10.28-9.37-17-2.29-6.72-3.44-14.57-3.44-23.53s1.25-16.71,3.75-23.63c2.5-6.92,6-12.72,10.52-17.4,4.51-4.68,9.82-8.24,15.93-10.68,6.11-2.44,12.84-3.66,20.2-3.66,3.33,0,6.45.24,9.37.73,2.92.49,5.42,1.08,7.5,1.77,2.5.7,4.71,1.46,6.66,2.29v-52.48h28.11v122.67c0,6.52,3.26,9.78,9.79,9.78h3.75v21.87c-1.53.52-3.06,1.04-4.58,1.56-1.39.35-2.99.7-4.79,1.04-1.8.35-3.75.52-5.83.52-5.56,0-9.79-1-12.7-3.01-2.92-2.01-5.14-4.23-6.66-6.67-1.67-2.72-2.64-5.95-2.92-9.68h-1.67c-1.94,3.75-4.45,7.01-7.5,9.78-2.64,2.36-6.04,4.55-10.2,6.56-4.16,2.02-9.37,3.02-15.62,3.02ZM1181.52,592.59c6.52,0,12.08-2.39,16.66-7.17,4.58-4.78,6.87-11.83,6.87-21.14v-26.23c-1.81-.94-3.75-1.74-5.83-2.41-1.81-.67-3.85-1.27-6.15-1.81-2.29-.53-4.76-.8-7.39-.8-7.36,0-13.37,2.44-18.02,7.31-4.65,4.87-6.97,12.36-6.97,22.47,0,5.06.59,9.46,1.77,13.19,1.18,3.73,2.74,6.83,4.69,9.29,1.94,2.47,4.16,4.3,6.66,5.5,2.5,1.2,5.07,1.8,7.71,1.8Z"/>
            <path class="cls-1" d="M1295.29,617.58c-5.56,0-10.65-.91-15.3-2.74-4.65-1.83-8.64-4.47-11.98-7.91-3.33-3.45-5.94-7.64-7.81-12.58-1.87-4.93-2.81-10.51-2.81-16.73v-69.58h28.11v67.64c0,5.1,1.53,9.19,4.58,12.28,3.05,3.09,7.22,4.63,12.49,4.63,6.53,0,12.08-2.55,16.66-7.65,4.58-5.1,6.87-12.61,6.87-22.55v-54.35h28.12v74.89c0,6.44,3.26,9.66,9.79,9.66h3.75v21.87c-1.53.52-3.06,1.04-4.58,1.56-1.53.35-3.2.7-5,1.04-1.8.35-3.68.52-5.62.52-5.56,0-9.79-1-12.7-3.01-2.92-2.01-5.14-4.23-6.66-6.67-1.67-2.72-2.64-5.95-2.92-9.68h-1.67c-1.94,3.75-4.44,7.01-7.5,9.78-2.64,2.36-6.04,4.55-10.2,6.56-4.16,2.02-9.37,3.02-15.62,3.02Z"/>
          </g>
          <path d="M608.5,567.64l-7.06-35.8,27.18-5.34-4.86-24.72-27.18,5.34-5.86-29.83-22.89,4.5,1.77,30.64-17.37,3.41,4.86,24.72,16.76-3.29,7.4,37.72c4.96,25.29,29.49,41.77,54.79,36.8l9.04-1.78-4.85-24.71-4.21.83c-12.7,2.49-25.02-5.77-27.52-18.47Z"/>
          <path d="M896.68,581.81l-.15-121.67h-28.11v122.11c.01,19.89,16.14,36.02,36.03,36.02h5.52s0-3.16,0-3.16c.03,0,.06-.02.09-.03v-21.01h-1.11c-6.77,0-12.27-5.49-12.28-12.26Z"/>
        </g>
        <path d="M691.66,582.2c-8.45,0-16.1-1.25-22.97-3.77-6.87-2.52-12.74-6.19-17.61-11.01-4.87-4.82-8.62-10.73-11.27-17.74-2.65-7-3.97-14.98-3.97-23.95s1.32-16.96,3.97-23.95c2.65-7,6.4-12.91,11.27-17.74,4.86-4.82,10.73-8.53,17.61-11.11,6.87-2.58,14.53-3.87,22.97-3.87s16.1,1.29,22.97,3.87c6.87,2.58,12.74,6.29,17.61,11.11,4.86,4.82,8.62,10.74,11.27,17.74,2.65,7,3.97,14.98,3.97,23.95s-1.33,16.96-3.97,23.95c-2.65,7-6.41,12.91-11.27,17.74-4.87,4.82-10.73,8.49-17.61,11.01-6.87,2.52-14.53,3.77-22.97,3.77ZM691.66,556.44c7.3,0,13.31-2.51,18.03-7.53,4.72-5.02,7.09-12.74,7.09-23.17s-2.36-18.15-7.09-23.17c-4.72-5.02-10.73-7.53-18.03-7.53s-13.35,2.51-18.14,7.53c-4.8,5.02-7.19,12.74-7.19,23.17s2.4,18.15,7.19,23.17c4.79,5.02,10.84,7.53,18.14,7.53Z"/>
        <path d="M804.01,619.86c-8.45,0-16.1-1.25-22.97-3.77-6.87-2.52-12.74-6.19-17.61-11.01-4.87-4.82-8.62-10.73-11.27-17.74-2.65-7-3.97-14.98-3.97-23.95s1.32-16.96,3.97-23.95c2.65-7,6.4-12.91,11.27-17.74,4.86-4.82,10.73-8.53,17.61-11.11,6.87-2.58,14.53-3.87,22.97-3.87s16.1,1.29,22.97,3.87c6.87,2.58,12.74,6.29,17.61,11.11,4.86,4.82,8.62,10.74,11.27,17.74,2.65,7,3.97,14.98,3.97,23.95s-1.33,16.96-3.97,23.95c-2.65,7-6.41,12.91-11.27,17.74-4.87,4.82-10.73,8.49-17.61,11.01-6.87,2.52-14.53,3.77-22.97,3.77ZM804.01,594.1c7.3,0,13.31-2.51,18.03-7.53,4.72-5.02,7.09-12.74,7.09-23.17s-2.36-18.15-7.09-23.17c-4.72-5.02-10.73-7.53-18.03-7.53s-13.35,2.51-18.14,7.53c-4.8,5.02-7.19,12.74-7.19,23.17s2.4,18.15,7.19,23.17c4.79,5.02,10.84,7.53,18.14,7.53Z"/>
      </g>
    </g>
  </g>
</svg>