<?xml version="1.0" encoding="UTF-8"?>
<svg xmlns="http://www.w3.org/2000/svg" version="1.1" viewBox="0 0 1920 1080">
  <defs>
    <style>
      .cls-1 {
        fill: #fff;
      }

      .cls-2 {
        fill: #785feb;
      }
    </style>
  </defs>
  <!-- Generator: Adobe Illustrator 28.7.1, SVG Export Plug-In . SVG Version: 1.2.0 Build 142)  -->
  <g>
    <g id="Layer_1">
      <g>
        <rect class="cls-2" x="825.82" y="405.82" width="268.36" height="268.36" rx="33.64" ry="33.64"/>
        <path class="cls-1" d="M903.3,540.53c-8.76,0-16.7-1.3-23.83-3.91-7.13-2.61-13.21-6.42-18.26-11.42-5.05-5-8.94-11.13-11.69-18.39-2.75-7.26-4.12-15.54-4.12-24.84s1.37-17.58,4.12-24.84c2.75-7.26,6.64-13.39,11.69-18.39,5.04-5,11.13-8.84,18.26-11.52,7.13-2.68,15.07-4.02,23.83-4.02s16.7,1.34,23.83,4.02c7.13,2.68,13.21,6.52,18.26,11.52,5.04,5,8.94,11.14,11.69,18.39,2.74,7.26,4.12,15.54,4.12,24.84s-1.37,17.59-4.12,24.84c-2.75,7.26-6.65,13.39-11.69,18.39-5.05,5-11.13,8.81-18.26,11.42-7.13,2.61-15.07,3.91-23.83,3.91ZM903.3,513.81c7.57,0,13.81-2.6,18.7-7.81,4.9-5.21,7.35-13.22,7.35-24.03s-2.45-18.83-7.35-24.03c-4.9-5.21-11.13-7.81-18.7-7.81s-13.84,2.61-18.82,7.81c-4.98,5.2-7.46,13.22-7.46,24.03s2.48,18.83,7.46,24.03c4.97,5.21,11.24,7.81,18.82,7.81Z"/>
        <path class="cls-1" d="M1024.54,587.02c-8.76,0-16.7-1.3-23.83-3.91-7.13-2.61-13.21-6.42-18.26-11.42-5.05-5-8.94-11.13-11.69-18.39-2.75-7.26-4.12-15.54-4.12-24.84s1.37-17.58,4.12-24.84c2.75-7.26,6.64-13.39,11.69-18.39,5.04-5,11.13-8.84,18.26-11.52,7.13-2.68,15.07-4.02,23.83-4.02s16.7,1.34,23.83,4.02c7.13,2.68,13.21,6.52,18.26,11.52,5.04,5,8.94,11.14,11.69,18.39,2.74,7.26,4.12,15.54,4.12,24.84s-1.37,17.59-4.12,24.84c-2.75,7.26-6.65,13.39-11.69,18.39-5.05,5-11.13,8.81-18.26,11.42-7.13,2.61-15.07,3.91-23.83,3.91ZM1024.54,560.3c7.57,0,13.81-2.6,18.7-7.81,4.9-5.21,7.35-13.22,7.35-24.03s-2.45-18.83-7.35-24.03c-4.9-5.21-11.13-7.81-18.7-7.81s-13.84,2.61-18.82,7.81c-4.98,5.2-7.46,13.22-7.46,24.03s2.48,18.83,7.46,24.03c4.97,5.21,11.24,7.81,18.82,7.81Z"/>
        <path class="cls-1" d="M963.68,618.65l-28.79-24.57,18.67-21.84-19.86-16.98-18.67,21.84-23.97-20.49-15.72,18.39,21.16,23.77-11.93,13.95,19.86,16.98,11.51-13.46,30.3,25.91c20.32,17.37,50.87,14.98,68.24-5.34l6.21-7.27-19.86-16.97-2.89,3.38c-8.72,10.2-24.06,11.41-34.27,2.69Z"/>
      </g>
    </g>
  </g>
</svg>