<?xml version="1.0" encoding="UTF-8"?>
<svg xmlns="http://www.w3.org/2000/svg" version="1.1" viewBox="0 0 1920 1080">
  <defs>
    <style>
      .cls-1 {
        fill: #785feb;
      }
    </style>
  </defs>
  <!-- Generator: Adobe Illustrator 28.7.1, SVG Export Plug-In . SVG Version: 1.2.0 Build 142)  -->
  <g>
    <g id="Layer_1">
      <g>
        <g>
          <g>
            <path d="M1144.28,558.03c-7.61,0-14.15-.93-19.63-2.8-5.48-1.87-10.03-3.96-13.63-6.28-4.25-2.7-7.8-5.8-10.63-9.28l12.95-15.49c2.06,2.1,4.44,3.97,7.15,5.61,2.32,1.4,5.19,2.66,8.6,3.77,3.42,1.11,7.38,1.66,11.89,1.66,5.54,0,9.51-.91,11.89-2.72,2.38-1.81,3.58-3.99,3.58-6.53,0-2.3-1.29-4.08-3.87-5.35-2.58-1.27-5.8-2.45-9.67-3.54s-8.06-2.27-12.57-3.54c-4.51-1.27-8.7-2.99-12.57-5.17-3.87-2.18-7.09-5.05-9.67-8.62-2.58-3.57-3.87-8.19-3.87-13.88,0-3.99.9-7.77,2.71-11.34,1.8-3.56,4.45-6.71,7.93-9.43,3.48-2.72,7.73-4.9,12.76-6.53,5.03-1.63,10.76-2.45,17.21-2.45s11.96.79,16.92,2.37c4.96,1.58,9.12,3.73,12.47,6.45,3.35,2.72,5.9,5.85,7.64,9.4,1.74,3.54,2.61,7.28,2.61,11.2,0,1.02-.07,2-.19,2.96-.13.95-.32,1.75-.58,2.38-.26.76-.52,1.14-.77,1.14h-25.14c0-.23.06-.57.2-1.02.26-.91.39-1.76.39-2.55,0-2.6-1.16-4.84-3.48-6.71-2.32-1.87-5.68-2.81-10.06-2.81-4,0-7.09.91-9.28,2.72-2.19,1.81-3.29,3.87-3.29,6.17s1.29,4.08,3.87,5.35c2.58,1.27,5.8,2.45,9.67,3.54,3.87,1.09,8.05,2.24,12.57,3.45,4.51,1.21,8.7,2.9,12.57,5.08,3.87,2.18,7.09,5.05,9.67,8.61,2.58,3.57,3.87,8.19,3.87,13.88,0,4.23-.9,8.16-2.71,11.79-1.81,3.63-4.42,6.83-7.83,9.61-3.42,2.78-7.61,4.96-12.57,6.53-4.96,1.57-10.67,2.36-17.11,2.36Z"/>
            <path class="cls-1" d="M785.39,668.15c-7.61,0-14.47-1.13-20.59-3.4s-11.34-5.57-15.66-9.92c-4.32-4.34-7.67-9.67-10.05-15.97-2.39-6.3-3.58-13.5-3.58-21.57s1.19-15.27,3.58-21.57c2.38-6.3,5.77-11.63,10.15-15.97,4.38-4.34,9.67-7.68,15.85-10.01,6.19-2.33,13.08-3.49,20.69-3.49,6.7,0,12.79.91,18.27,2.74,5.48,1.82,10.08,4.36,13.83,7.6,3.74,3.24,6.64,7.07,8.7,11.48,2.06,4.42,3.09,9.22,3.09,14.4,0,3.06-.29,5.83-.87,8.3-.58,2.47-1.19,4.71-1.84,6.71-.77,2.24-1.61,4.3-2.51,6.18h-60.52c.77,6.7,3.25,12.05,7.44,16.05,4.19,4,9.96,5.99,17.31,5.99,4.38,0,8.25-.64,11.6-1.93,3.35-1.29,6.19-2.71,8.51-4.25,2.71-1.8,5.03-3.93,6.96-6.38l11.99,17.41c-2.84,3.35-6.32,6.32-10.44,8.89-3.48,2.19-7.86,4.19-13.15,5.99-5.29,1.81-11.54,2.71-18.75,2.71ZM799.7,604.34c1.29,0,2.25-.48,2.9-1.43.64-.96.96-2.16.96-3.6,0-2.97-1.52-5.48-4.54-7.54-3.03-2.06-7.44-3.09-13.24-3.09s-10.63,1.41-14.5,4.24c-3.87,2.83-6.32,6.63-7.35,11.42h35.77Z"/>
            <path class="cls-1" d="M879.04,668.15c-5.41,0-10.54-1.07-15.37-3.21-4.83-2.14-9.09-5.36-12.76-9.64-3.67-4.28-6.57-9.55-8.7-15.79-2.13-6.24-3.19-13.53-3.19-21.85s1.16-15.51,3.48-21.94c2.32-6.43,5.57-11.81,9.76-16.16,4.19-4.35,9.12-7.65,14.79-9.91,5.67-2.26,11.92-3.4,18.76-3.4,3.09,0,5.99.23,8.7.68,2.71.45,5.03,1,6.96,1.64,2.32.65,4.38,1.35,6.19,2.13l-.35-35.35h26.1l.35,100.52c0,6.06,3.03,9.08,9.09,9.08h3.48v20.31c-1.42.48-2.84.97-4.25,1.45-1.29.32-2.77.65-4.45.97-1.67.32-3.48.48-5.41.48-5.16,0-9.09-.93-11.79-2.79-2.71-1.86-4.77-3.93-6.19-6.2-1.55-2.53-2.45-5.53-2.71-8.99h-1.55c-1.81,3.48-4.13,6.51-6.96,9.08-2.45,2.19-5.61,4.22-9.47,6.09-3.87,1.87-8.7,2.8-14.5,2.8ZM885.81,644.94c6.06,0,11.21-2.22,15.47-6.66,4.25-4.44,6.38-10.98,6.38-19.63v-24.36c-1.68-.87-3.48-1.61-5.41-2.23-1.68-.62-3.58-1.18-5.71-1.68-2.12-.5-4.42-.75-6.86-.75-6.84,0-12.41,2.26-16.73,6.78-4.32,4.52-6.48,11.48-6.48,20.87,0,4.7.54,8.78,1.64,12.24,1.09,3.46,2.54,6.34,4.35,8.63,1.8,2.29,3.87,3.99,6.19,5.11,2.32,1.12,4.7,1.67,7.15,1.67Z"/>
            <path class="cls-1" d="M991.44,668.15c-5.16,0-9.89-.85-14.21-2.54-4.32-1.7-8.03-4.15-11.12-7.35-3.09-3.2-5.51-7.09-7.25-11.68-1.74-4.58-2.61-9.76-2.61-15.54v-64.6h26.1v62.8c0,4.74,1.42,8.54,4.26,11.4,2.83,2.87,6.7,4.3,11.6,4.3,6.06,0,11.21-2.37,15.47-7.1,4.25-4.73,6.38-11.71,6.38-20.93v-50.46h26.1v69.53c0,5.98,3.03,8.97,9.09,8.97h3.48v20.31c-1.42.48-2.84.97-4.25,1.45-1.42.32-2.97.65-4.64.97-1.67.32-3.42.48-5.22.48-5.16,0-9.09-.93-11.79-2.79-2.71-1.86-4.77-3.93-6.19-6.2-1.55-2.53-2.45-5.53-2.71-8.99h-1.55c-1.81,3.48-4.13,6.51-6.96,9.08-2.45,2.19-5.61,4.22-9.47,6.09-3.87,1.87-8.7,2.8-14.5,2.8Z"/>
          </g>
          <path d="M815.38,514.4l-9.92-32.4,24.6-7.51-6.83-22.38-24.6,7.51-8.24-27-20.71,6.32,4.54,28.13-15.72,4.8,6.83,22.38,15.17-4.63,10.41,34.13c6.98,22.89,31.2,35.78,54.09,28.8l8.18-2.5-6.83-22.37-3.81,1.16c-11.49,3.51-23.65-2.96-27.17-14.45Z"/>
          <path d="M1082.15,524.82l-.14-112.97h-26.1v113.37c.01,18.47,14.99,33.45,33.46,33.45h5.13s0-2.94,0-2.94c.03,0,.06-.02.09-.02v-19.51h-1.03c-6.29,0-11.39-5.09-11.4-11.38Z"/>
        </g>
        <path d="M891.8,525.19c-7.84,0-14.95-1.16-21.33-3.5-6.38-2.34-11.83-5.74-16.35-10.22-4.52-4.48-8.01-9.97-10.47-16.47-2.46-6.5-3.69-13.91-3.69-22.24s1.23-15.74,3.69-22.24c2.46-6.5,5.95-11.99,10.47-16.47,4.52-4.48,9.97-7.92,16.35-10.32,6.38-2.4,13.49-3.6,21.33-3.6s14.95,1.2,21.33,3.6c6.38,2.4,11.83,5.84,16.35,10.32,4.52,4.48,8,9.97,10.47,16.47,2.46,6.5,3.69,13.91,3.69,22.24s-1.23,15.74-3.69,22.24c-2.46,6.5-5.95,11.99-10.47,16.47-4.52,4.48-9.97,7.89-16.35,10.22-6.38,2.34-13.49,3.5-21.33,3.5ZM891.8,501.26c6.78,0,12.36-2.33,16.74-6.99,4.39-4.66,6.58-11.83,6.58-21.52s-2.19-16.85-6.58-21.51c-4.39-4.66-9.97-6.99-16.74-6.99s-12.39,2.33-16.84,6.99c-4.45,4.66-6.68,11.83-6.68,21.51s2.22,16.86,6.68,21.52c4.45,4.66,10.07,6.99,16.84,6.99Z"/>
        <path d="M996.12,560.15c-7.84,0-14.95-1.16-21.33-3.5-6.38-2.34-11.83-5.74-16.35-10.22-4.52-4.48-8.01-9.97-10.47-16.47-2.46-6.5-3.69-13.91-3.69-22.24s1.23-15.74,3.69-22.24c2.46-6.5,5.95-11.99,10.47-16.47,4.52-4.48,9.97-7.92,16.35-10.32,6.38-2.4,13.49-3.6,21.33-3.6s14.95,1.2,21.33,3.6c6.38,2.4,11.83,5.84,16.35,10.32,4.52,4.48,8,9.97,10.47,16.47,2.46,6.5,3.69,13.91,3.69,22.24s-1.23,15.74-3.69,22.24c-2.46,6.5-5.95,11.99-10.47,16.47-4.52,4.48-9.97,7.89-16.35,10.22-6.38,2.34-13.49,3.5-21.33,3.5ZM996.12,536.23c6.78,0,12.36-2.33,16.74-6.99,4.39-4.66,6.58-11.83,6.58-21.52s-2.19-16.85-6.58-21.51c-4.39-4.66-9.97-6.99-16.74-6.99s-12.39,2.33-16.84,6.99c-4.45,4.66-6.68,11.83-6.68,21.51s2.22,16.86,6.68,21.52c4.45,4.66,10.07,6.99,16.84,6.99Z"/>
      </g>
    </g>
  </g>
</svg>